<svg width="32" height="32" viewBox="0 0 32 32" fill="none" xmlns="http://www.w3.org/2000/svg">
<path d="M16 0C18.2095 0 20.2857 0.419048 22.2286 1.25714C24.1714 2.09524 25.8667 3.2381 27.3143 4.68571C28.7619 6.13333 29.9048 7.82857 30.7429 9.77143C31.581 11.7143 32 13.7905 32 16C32 18.2095 31.581 20.2857 30.7429 22.2286C29.9048 24.1714 28.7619 25.8667 27.3143 27.3143C25.8667 28.7619 24.1714 29.9048 22.2286 30.7429C20.2857 31.581 18.2095 32 16 32C13.7905 32 11.7143 31.581 9.77143 30.7429C7.82857 29.9048 6.13333 28.7619 4.68571 27.3143C3.2381 25.8667 2.09524 24.1714 1.25714 22.2286C0.419048 20.2857 0 18.2095 0 16C0 13.7905 0.419048 11.7143 1.25714 9.77143C2.09524 7.82857 3.2381 6.13333 4.68571 4.68571C6.13333 3.2381 7.82857 2.09524 9.77143 1.25714C11.7143 0.419048 13.7905 0 16 0ZM7.00952 20.1524L11.8095 16.7238L7.00952 13.2952V20.1524ZM24.9905 21.6762L19.1238 17.4857L16 19.7333L12.8381 17.4857L7.00952 21.6762V24H24.9905V21.6762ZM24.9905 13.2952L20.1905 16.7238L24.9905 20.1524V13.2952ZM24.9905 8H7.00952V10.3238L16 16.7238L24.9905 10.3238V8Z" fill="#783EAD"/>
</svg>
