<svg width="32" height="32" viewBox="0 0 32 32" fill="none" xmlns="http://www.w3.org/2000/svg">
<path d="M21.4098 16.0191C21.4098 15.5858 21.3461 15.1143 21.2186 14.6045H22.8244V22.3274C22.8244 22.5313 22.7543 22.6969 22.6141 22.8244C22.4739 22.9518 22.3019 23.0155 22.098 23.0155H9.51971C9.31581 23.0155 9.15014 22.9518 9.0227 22.8244C8.89526 22.6969 8.83154 22.5313 8.83154 22.3274V14.6045H10.399C10.2716 15.1143 10.2079 15.5858 10.2079 16.0191C10.2079 16.7838 10.3544 17.5102 10.6476 18.1983C10.9407 18.8865 11.3421 19.4791 11.8519 19.9761C12.3616 20.4731 12.9606 20.8682 13.6487 21.1613C14.3369 21.4544 15.0633 21.601 15.828 21.601C16.5926 21.601 17.319 21.4544 18.0072 21.1613C18.6953 20.8682 19.2879 20.4731 19.7849 19.9761C20.282 19.4791 20.677 18.8865 20.9701 18.1983C21.2632 17.5102 21.4098 16.7838 21.4098 16.0191ZM15.828 19.4982C15.3437 19.4982 14.8849 19.409 14.4516 19.2306C14.0183 19.0522 13.6424 18.8037 13.3238 18.4851C13.0052 18.1665 12.7567 17.7969 12.5783 17.3763C12.3998 16.9558 12.3106 16.5034 12.3106 16.0191C12.3106 15.5348 12.3998 15.0761 12.5783 14.6428C12.7567 14.2095 13.0052 13.8335 13.3238 13.5149C13.6424 13.1963 14.0183 12.9478 14.4516 12.7694C14.8849 12.591 15.3437 12.5018 15.828 12.5018C16.3122 12.5018 16.7646 12.591 17.1852 12.7694C17.6057 12.9478 17.9753 13.1963 18.2939 13.5149C18.6125 13.8335 18.861 14.2095 19.0394 14.6428C19.2178 15.0761 19.307 15.5348 19.307 16.0191C19.307 16.5034 19.2178 16.9558 19.0394 17.3763C18.861 17.7969 18.6125 18.1665 18.2939 18.4851C17.9753 18.8037 17.6057 19.0522 17.1852 19.2306C16.7646 19.409 16.3122 19.4982 15.828 19.4982ZM22.098 9.0227C22.3019 9.0227 22.4739 9.08642 22.6141 9.21386C22.7543 9.3413 22.8244 9.50697 22.8244 9.71087V11.8136C22.8244 12.0175 22.7543 12.1832 22.6141 12.3106C22.4739 12.4381 22.3019 12.5018 22.098 12.5018H19.9952C19.7913 12.5018 19.6256 12.4381 19.4982 12.3106C19.3708 12.1832 19.307 12.0175 19.307 11.8136V9.71087C19.307 9.50697 19.3708 9.3413 19.4982 9.21386C19.6256 9.08642 19.7913 9.0227 19.9952 9.0227H22.098ZM23.9713 0C25.0673 0 26.1059 0.210275 27.0872 0.630824C28.0685 1.05137 28.9223 1.62485 29.6487 2.35125C30.3751 3.07766 30.9486 3.92513 31.3692 4.89367C31.7897 5.86221 32 6.89446 32 7.99044V23.9713C32 25.0673 31.7897 26.1059 31.3692 27.0872C30.9486 28.0685 30.3751 28.9223 29.6487 29.6487C28.9223 30.3751 28.0685 30.9486 27.0872 31.3692C26.1059 31.7897 25.0673 32 23.9713 32H7.99044C6.89446 32 5.86221 31.7897 4.89367 31.3692C3.92513 30.9486 3.07766 30.3751 2.35125 29.6487C1.62485 28.9223 1.05137 28.0685 0.630824 27.0872C0.210275 26.1059 0 25.0673 0 23.9713V7.99044C0 6.89446 0.210275 5.86221 0.630824 4.89367C1.05137 3.92513 1.62485 3.07766 2.35125 2.35125C3.07766 1.62485 3.92513 1.05137 4.89367 0.630824C5.86221 0.210275 6.89446 0 7.99044 0H23.9713ZM24.9271 9.0227C24.9271 8.43648 24.7232 7.93947 24.3154 7.53166C23.9076 7.12385 23.4106 6.91995 22.8244 6.91995H8.83154C8.24532 6.91995 7.74831 7.12385 7.3405 7.53166C6.9327 7.93947 6.72879 8.43648 6.72879 9.0227V23.0155C6.72879 23.6018 6.9327 24.0988 7.3405 24.5066C7.74831 24.9144 8.24532 25.1183 8.83154 25.1183H22.8244C23.4106 25.1183 23.9076 24.9144 24.3154 24.5066C24.7232 24.0988 24.9271 23.6018 24.9271 23.0155V9.0227Z" fill="#783EAD"/>
</svg>
