<svg width="32" height="32" viewBox="0 0 32 32" fill="none" xmlns="http://www.w3.org/2000/svg">
<path d="M24.0096 0C25.1055 0 26.1378 0.210275 27.1063 0.630824C28.0749 1.05137 28.9223 1.62485 29.6487 2.35125C30.3751 3.07766 30.9486 3.92513 31.3692 4.89367C31.7897 5.86221 32 6.89446 32 7.99044V23.9713C32 25.0673 31.7897 26.1059 31.3692 27.0872C30.9486 28.0685 30.3751 28.9223 29.6487 29.6487C28.9223 30.3751 28.0749 30.9486 27.1063 31.3692C26.1378 31.7897 25.1055 32 24.0096 32H7.99044C6.89446 32 5.86221 31.7897 4.89367 31.3692C3.92513 30.9486 3.07766 30.3751 2.35125 29.6487C1.62485 28.9223 1.05137 28.0685 0.630824 27.0872C0.210275 26.1059 0 25.0673 0 23.9713V7.99044C0 6.89446 0.210275 5.86221 0.630824 4.89367C1.05137 3.92513 1.62485 3.07766 2.35125 2.35125C3.07766 1.62485 3.92513 1.05137 4.89367 0.630824C5.86221 0.210275 6.89446 0 7.99044 0H24.0096ZM23.6272 12.043C24.3664 11.5333 25.0163 10.8706 25.5771 10.055C25.2202 10.2079 24.857 10.3353 24.4875 10.4373C24.1179 10.5392 23.7419 10.6157 23.3596 10.6667C24.2007 10.1314 24.7614 9.40502 25.0418 8.48746C24.2772 8.97172 23.4616 9.29032 22.595 9.44325C21.8303 8.62764 20.8746 8.21983 19.7276 8.21983C19.1924 8.21983 18.689 8.32178 18.2174 8.52569C17.7459 8.72959 17.3381 9.00996 16.994 9.36679C16.6499 9.72362 16.3759 10.1378 16.172 10.6093C15.9681 11.0808 15.8662 11.5842 15.8662 12.1195C15.8662 12.2724 15.8726 12.419 15.8853 12.5591C15.898 12.6993 15.9172 12.8459 15.9427 12.9988C14.3369 12.9223 12.8459 12.5209 11.4695 11.7945C10.0932 11.0681 8.92075 10.1187 7.95221 8.94624C7.59538 9.53246 7.41697 10.1824 7.41697 10.8961C7.41697 11.5587 7.57626 12.1704 7.89486 12.7312C8.21346 13.2919 8.62764 13.7507 9.13739 14.1075C8.83154 14.1075 8.53206 14.0629 8.23895 13.9737C7.94584 13.8845 7.6591 13.7762 7.37873 13.6487V13.687C7.37873 14.63 7.67822 15.452 8.27718 16.1529C8.87614 16.8538 9.62166 17.3063 10.5137 17.5102C10.1569 17.5866 9.81282 17.6248 9.48148 17.6248H9.11828L8.75508 17.5484C9.00996 18.3385 9.46237 18.9821 10.1123 19.4791C10.7622 19.9761 11.5205 20.2374 12.3871 20.2628C11.7244 20.7726 10.9789 21.1804 10.1505 21.4863C9.32218 21.7921 8.46197 21.945 7.56989 21.945C7.39148 21.945 7.22581 21.9387 7.07288 21.9259C6.91995 21.9132 6.76702 21.8941 6.6141 21.8686C7.48068 22.4293 8.41736 22.8626 9.42413 23.1685C10.4309 23.4743 11.4823 23.6272 12.5783 23.6272C14.3624 23.6272 15.9427 23.2895 17.319 22.6141C18.6953 21.9387 19.8487 21.0721 20.779 20.0143C21.7093 18.9566 22.4166 17.7714 22.9008 16.4588C23.3851 15.1462 23.6272 13.8399 23.6272 12.54V12.043Z" fill="#783EAD"/>
</svg>
